<?xml version="1.0" encoding="utf-8"?>
<!-- Generator: Adobe Illustrator 25.4.1, SVG Export Plug-In . SVG Version: 6.00 Build 0)  -->
<svg version="1.1" id="ES" xmlns="http://www.w3.org/2000/svg" xmlns:xlink="http://www.w3.org/1999/xlink" x="0px" y="0px"
	 viewBox="0 0 110.1 34" style="enable-background:new 0 0 110.1 34;" xml:space="preserve">
<style type="text/css">
	.st0{fill:#A6A6A6;}
	.st1{fill:#FFFFFF;}
	.st2{font-family:'Helvetica';}
	.st3{font-size:8.3163px;}
	.st4{font-family:'Helvetica-Bold';}
	.st5{fill:#B0B7BD;}
	.st6{fill:#CAD1D8;}
	.st7{fill:#F15642;}
</style>
<path class="st0" d="M99.8,0H10.3C9.9,0,9.5,0,9.1,0c-0.3,0-0.7,0-1,0C7.4,0,6.6,0.1,5.9,0.2c-0.7,0.1-1.4,0.3-2,0.7
	C3.2,1.2,2.7,1.6,2.2,2.1C1.6,2.7,1.2,3.2,0.9,3.9c-0.3,0.7-0.5,1.3-0.7,2C0.1,6.6,0,7.4,0,8.1c0,0.3,0,0.7,0,1c0,0.4,0,0.8,0,1.2
	v13.5c0,0.4,0,0.8,0,1.2c0,0.3,0,0.7,0,1c0,0.7,0.1,1.4,0.2,2.2c0.1,0.7,0.3,1.4,0.7,2c0.3,0.6,0.8,1.2,1.3,1.7
	c0.5,0.5,1.1,0.9,1.7,1.3c0.7,0.3,1.3,0.5,2,0.7C6.6,33.9,7.4,34,8.1,34c0.3,0,0.7,0,1,0c0.4,0,0.8,0,1.2,0h89.6c0.4,0,0.8,0,1.2,0
	c0.3,0,0.7,0,1,0c0.7,0,1.4-0.1,2.1-0.2c0.7-0.1,1.4-0.3,2.1-0.7c0.6-0.3,1.2-0.8,1.7-1.3c0.5-0.5,0.9-1.1,1.3-1.7
	c0.3-0.7,0.5-1.3,0.7-2c0.1-0.7,0.2-1.4,0.2-2.2c0-0.3,0-0.7,0-1c0-0.4,0-0.8,0-1.2V10.3c0-0.4,0-0.8,0-1.2c0-0.3,0-0.7,0-1
	c0-0.7-0.1-1.4-0.2-2.2c-0.1-0.7-0.3-1.4-0.7-2c-0.3-0.6-0.8-1.2-1.3-1.7c-0.5-0.5-1.1-0.9-1.7-1.3c-0.7-0.3-1.3-0.5-2.1-0.7
	C103.4,0.1,102.7,0,102,0c-0.3,0-0.7,0-1,0C100.6,0,100.2,0,99.8,0L99.8,0z"/>
<path d="M100.1,0.7c0.4,0,0.8,0,1.2,0l0.1,0l0.9,0c0.6,0,1.3,0.1,2.1,0.2c0.7,0.1,1.3,0.3,1.9,0.6c0.6,0.3,1.1,0.7,1.6,1.1
	c0.5,0.5,0.8,1,1.1,1.6c0.3,0.6,0.5,1.2,0.6,1.9c0.1,0.7,0.2,1.4,0.2,2c0,0.3,0,0.7,0,1c0,0.4,0,0.8,0,1.2v13.5c0,0.4,0,0.8,0,1.2
	c0,0.3,0,0.7,0,1c0,0.6-0.1,1.4-0.2,2.1c-0.1,0.7-0.3,1.3-0.6,1.9c-0.3,0.6-0.7,1.1-1.2,1.6c-0.5,0.5-1,0.8-1.6,1.1
	c-0.6,0.3-1.2,0.5-1.9,0.6c-0.7,0.1-1.4,0.2-2,0.2c-0.3,0-0.7,0-1,0c-0.4,0-0.8,0-1.2,0H10.5c-0.4,0-0.8,0-1.2,0c-0.3,0-0.6,0-1,0
	c-0.6,0-1.3-0.1-2.1-0.2C5.6,33,5,32.8,4.4,32.5c-0.6-0.3-1.1-0.7-1.6-1.1c-0.5-0.5-0.8-1-1.1-1.6c-0.3-0.6-0.5-1.2-0.6-1.9
	c-0.1-0.7-0.2-1.5-0.2-2.1c0-0.2,0-0.5,0-0.7l0-0.3v-1.2V10.3V9.1l0-0.3c0-0.2,0-0.5,0-0.7c0-0.6,0-1.3,0.2-2.1
	c0.1-0.7,0.3-1.3,0.6-1.9C2,3.6,2.4,3.1,2.8,2.6c0.5-0.5,1-0.9,1.6-1.1C5,1.2,5.6,1,6.3,0.9C7,0.7,7.7,0.7,8.3,0.7l1,0
	c0.4,0,0.8,0,1.2,0L100.1,0.7"/>
<path class="st1" d="M42.2-24.1h-0.9L39-32.2h1.1l1.6,6.6h0l1.8-6.6h1l1.8,6.6h0l1.6-6.6h1.1l-2.2,8.1H46l-1.9-6.4H44L42.2-24.1z"/>
<path class="st1" d="M49.5-25.8c0-1,0.8-1.6,2.3-1.7l1.7-0.1v-0.5c0-0.7-0.5-1.2-1.4-1.2c-0.7,0-1.2,0.4-1.3,0.9h-0.9
	c0-1,1-1.8,2.3-1.8c1.4,0,2.3,0.8,2.3,1.9v4.1h-0.9v-1h0c-0.3,0.7-1.1,1.1-1.9,1.1C50.3-24.1,49.5-24.8,49.5-25.8z M53.4-26.4v-0.5
	l-1.6,0.1c-0.9,0.1-1.4,0.4-1.4,1c0,0.6,0.5,0.9,1.2,0.9C52.7-24.9,53.4-25.6,53.4-26.4z"/>
<path class="st1" d="M55.8-32.5h1v8.4h-1V-32.5z"/>
<path class="st1" d="M58.7-32.5h1v8.4h-1V-32.5z"/>
<path class="st1" d="M66.2-25.9c-0.2,1-1.2,1.8-2.5,1.8c-1.7,0-2.8-1.2-2.8-3s1.1-3.1,2.7-3.1c1.6,0,2.6,1.1,2.6,3v0.4h-4.3v0.1
	c0,1.1,0.7,1.9,1.8,1.9c0.8,0,1.3-0.4,1.5-0.9L66.2-25.9L66.2-25.9z M61.9-27.7h3.3c0-1-0.7-1.7-1.6-1.7
	C62.7-29.4,62-28.7,61.9-27.7z"/>
<path class="st1" d="M68.8-31.5v1.4H70v0.8h-1.2v3.6c0,0.6,0.2,0.8,0.7,0.8c0.1,0,0.4,0,0.4,0v0.8c-0.1,0-0.4,0-0.6,0
	c-1.1,0-1.5-0.5-1.5-1.6v-3.7H67v-0.8h0.8v-1.4C67.8-31.5,68.8-31.5,68.8-31.5z"/>
<text transform="matrix(1 0 0 1 38.716 14.1531)" class="st1 st2 st3">Descargar</text>
<text transform="matrix(1 0 0 1 38.716 25.6796)" class="st1 st4 st3">PDF </text>
<path class="st1" d="M11,5.6c-0.8,0-1.4,0.6-1.4,1.4v20c0,0.8,0.6,1.4,1.4,1.4h14.3c0.8,0,1.4-0.6,1.4-1.4V11.3L21,5.6H11z"/>
<path class="st5" d="M22.5,11.3h4.3L21,5.6v4.3C21,10.7,21.7,11.3,22.5,11.3z"/>
<polygon class="st6" points="26.7,15.6 22.5,11.3 26.7,11.3 "/>
<path class="st7" d="M23.9,24.1c0,0.4-0.3,0.7-0.7,0.7H7.5c-0.4,0-0.7-0.3-0.7-0.7V17c0-0.4,0.3-0.7,0.7-0.7h15.7
	c0.4,0,0.7,0.3,0.7,0.7V24.1z"/>
<g>
	<path class="st1" d="M9.9,19.1c0-0.2,0.1-0.4,0.4-0.4h1.3c0.7,0,1.4,0.5,1.4,1.4c0,0.9-0.7,1.4-1.4,1.4h-1v0.8
		c0,0.3-0.2,0.4-0.4,0.4c-0.2,0-0.4-0.1-0.4-0.4V19.1z M10.6,19.4v1.4h1c0.4,0,0.7-0.3,0.7-0.7c0-0.4-0.3-0.7-0.7-0.7H10.6z"/>
	<path class="st1" d="M14.1,22.7c-0.2,0-0.4-0.1-0.4-0.4v-3.2c0-0.2,0.2-0.4,0.4-0.4h1.3c2.6,0,2.6,3.9,0.1,3.9H14.1z M14.5,19.5V22
		h0.9c1.5,0,1.6-2.6,0-2.6H14.5L14.5,19.5z"/>
	<path class="st1" d="M18.9,19.5v0.9h1.5c0.2,0,0.4,0.2,0.4,0.4c0,0.2-0.2,0.3-0.4,0.3h-1.5v1.2c0,0.2-0.1,0.4-0.3,0.4
		c-0.3,0-0.4-0.2-0.4-0.4v-3.2c0-0.2,0.2-0.4,0.4-0.4h2c0.3,0,0.4,0.1,0.4,0.4c0,0.2-0.1,0.4-0.4,0.4L18.9,19.5L18.9,19.5z"/>
</g>
<path class="st6" d="M23.2,24.9H9.6v0.7h13.6c0.4,0,0.7-0.3,0.7-0.7v-0.7C23.9,24.5,23.6,24.9,23.2,24.9z"/>
<g>
	<path d="M18.1,10.6h-0.8V8.5c0-0.4-0.3-0.6-0.6-0.6S16,8.2,16,8.5v2.1h-0.8c-0.4,0-0.6,0.5-0.3,0.8l1.4,1.4
		c0.1,0.1,0.2,0.1,0.3,0.1s0.2,0,0.3-0.1l1.4-1.4C18.7,11.1,18.5,10.6,18.1,10.6z"/>
	<path d="M18.6,15.5h-3.8c-0.7,0-1.3-0.6-1.3-1.3v-0.6c0-0.4,0.3-0.6,0.6-0.6s0.6,0.3,0.6,0.6v0.6h3.8v-0.6c0-0.4,0.3-0.6,0.6-0.6
		c0.4,0,0.6,0.3,0.6,0.6v0.6C19.9,15,19.3,15.5,18.6,15.5z"/>
</g>
</svg>
